<?xml version="1.0" encoding="UTF-8" standalone="no"?>
<!-- Created with Inkscape (http://www.inkscape.org/) -->

<svg
   version="1.1"
   id="svg2"
   width="861.33331"
   height="255.2092"
   viewBox="0 0 861.33331 255.2092"
   sodipodi:docname="ES.svg"
   xmlns:inkscape="http://www.inkscape.org/namespaces/inkscape"
   xmlns:sodipodi="http://sodipodi.sourceforge.net/DTD/sodipodi-0.dtd"
   xmlns="http://www.w3.org/2000/svg"
   xmlns:svg="http://www.w3.org/2000/svg">
  <defs
     id="defs6">
    <clipPath
       clipPathUnits="userSpaceOnUse"
       id="clipPath18">
      <path
         d="M 0,2207.03 H 6460 V 292.961 H 0 Z"
         id="path16" />
    </clipPath>
    <clipPath
       clipPathUnits="userSpaceOnUse"
       id="clipPath40">
      <path
         d="M 0,2207.04 H 6460 V 292.961 H 0 Z"
         id="path38" />
    </clipPath>
  </defs>
  <sodipodi:namedview
     id="namedview4"
     pagecolor="#ffffff"
     bordercolor="#000000"
     borderopacity="0.25"
     inkscape:showpageshadow="2"
     inkscape:pageopacity="0.0"
     inkscape:pagecheckerboard="0"
     inkscape:deskcolor="#d1d1d1" />
  <g
     id="g8"
     inkscape:groupmode="layer"
     inkscape:label="ink_ext_XXXXXX"
     transform="matrix(1.3333333,0,0,-1.3333333,0,294.27066)">
    <g
       id="g10"
       transform="scale(0.1)">
      <g
         id="g12">
        <g
           id="g14"
           clip-path="url(#clipPath18)">
          <path
             d="M 6220.74,292.969 H 239.262 C 107.668,292.969 0,400.629 0,532.23 v 1435.55 c 0,131.6 107.668,239.26 239.262,239.26 H 6220.74 c 131.59,0 239.26,-107.66 239.26,-239.26 V 532.23 c 0,-131.601 -107.67,-239.261 -239.26,-239.261"
             style="fill:#100f0d;fill-opacity:1;fill-rule:nonzero;stroke:none"
             id="path20" />
          <path
             d="M 6220.74,2207.03 H 239.262 C 107.668,2207.03 0,2099.37 0,1967.77 V 532.219 C 0,400.621 107.668,292.961 239.262,292.961 H 6220.74 c 131.59,0 239.26,107.66 239.26,239.258 V 1967.77 c 0,131.6 -107.67,239.26 -239.26,239.26 m 0,-38.28 c 110.83,0 200.98,-90.15 200.98,-200.98 V 532.219 c 0,-110.828 -90.15,-200.981 -200.98,-200.981 H 239.262 c -110.828,0 -200.9768,90.153 -200.9768,200.981 V 1967.77 c 0,110.83 90.1488,200.98 200.9768,200.98 H 6220.74"
             style="fill:#a2a2a1;fill-opacity:1;fill-rule:nonzero;stroke:none"
             id="path22" />
          <path
             d="m 5117.09,771.48 h 89.29 v 598.19 h -89.29 z m 804.24,382.72 -102.35,-259.36 h -3.07 L 5709.68,1154.2 H 5613.5 L 5772.8,791.719 5681.98,590.07 h 93.12 l 245.53,564.13 z M 5414.97,839.43 c -29.29,0 -70.06,14.64 -70.06,50.82 0,46.172 50.77,63.832 94.65,63.832 39.24,0 57.71,-8.473 81.59,-20 -6.94,-55.41 -54.65,-94.652 -106.18,-94.652 m 10.76,327.83 c -64.65,0 -131.64,-28.47 -159.34,-91.54 l 79.28,-33.11 c 16.94,33.11 48.48,43.88 81.59,43.88 46.18,0 93.12,-27.71 93.89,-76.95 v -6.17 c -16.17,9.23 -50.82,23.06 -93.12,23.06 -85.42,0 -172.41,-46.942 -172.41,-134.649 0,-80.062 70.05,-131.601 148.53,-131.601 60.05,0 93.12,26.898 113.94,58.48 h 3.06 v -46.18 h 86.18 v 229.36 c 0,106.18 -79.24,165.42 -181.6,165.42 m -551.83,-85.89 h -127 v 205.09 h 127 c 66.76,0 104.65,-55.32 104.65,-102.55 0,-46.37 -37.89,-102.54 -104.65,-102.54 m -2.29,288.3 H 4657.66 V 771.48 h 89.24 v 226.622 h 124.71 c 98.96,0 196.24,71.688 196.24,185.808 0,114.13 -97.28,185.76 -196.24,185.76 M 3704.93,839.328 c -61.68,0 -113.31,51.633 -113.31,122.551 0,71.681 51.63,124.131 113.31,124.131 60.91,0 108.67,-52.45 108.67,-124.131 0,-70.918 -47.76,-122.551 -108.67,-122.551 m 102.5,281.372 h -3.06 c -20.05,23.88 -58.57,45.51 -107.14,45.51 -101.79,0 -195.05,-89.44 -195.05,-204.331 0,-114.078 93.26,-202.75 195.05,-202.75 48.57,0 87.09,21.582 107.14,46.269 h 3.06 v -29.277 c 0,-77.902 -41.59,-119.492 -108.67,-119.492 -54.75,0 -88.67,39.293 -102.55,72.453 l -77.86,-32.402 c 22.35,-53.969 81.74,-120.25 180.41,-120.25 104.84,0 193.51,61.679 193.51,211.992 v 365.438 h -84.84 z M 3953.9,771.48 h 89.44 v 598.24 h -89.44 z m 221.27,197.34 c -2.29,78.67 60.91,118.72 106.37,118.72 35.51,0 65.56,-17.71 75.56,-43.16 z m 277.54,67.85 c -16.99,45.51 -68.62,129.54 -174.23,129.54 -104.84,0 -191.93,-82.5 -191.93,-203.562 0,-114.078 86.33,-203.519 201.94,-203.519 93.31,0 147.23,57.043 169.63,90.199 l -69.38,46.281 c -23.17,-33.929 -54.75,-56.281 -100.25,-56.281 -45.47,0 -77.86,20.82 -98.68,61.633 l 272.14,112.599 z m -2168.07,67.04 v -86.32 h 206.58 c -6.18,-48.57 -22.35,-84.031 -46.99,-108.671 -30.1,-30.098 -77.14,-63.219 -159.59,-63.219 -127.24,0 -226.67,102.5 -226.67,229.74 0,127.19 99.43,229.69 226.67,229.69 68.62,0 118.72,-26.94 155.71,-61.63 l 60.91,60.86 c -51.67,49.34 -120.25,87.14 -216.62,87.14 -174.23,0 -320.7,-141.88 -320.7,-316.06 0,-174.279 146.47,-316.111 320.7,-316.111 94.03,0 164.95,30.871 220.45,88.672 57.04,57.039 74.8,137.187 74.8,201.979 0,20.05 -1.54,38.52 -4.65,53.93 z m 530.1,-264.382 c -61.63,0 -114.84,50.871 -114.84,123.32 0,73.262 53.21,123.362 114.84,123.362 61.68,0 114.89,-50.1 114.89,-123.362 0,-72.449 -53.21,-123.32 -114.89,-123.32 m 0,326.882 c -112.55,0 -204.28,-85.61 -204.28,-203.562 0,-117.148 91.73,-203.519 204.28,-203.519 112.55,0 204.33,86.371 204.33,203.519 0,117.952 -91.78,203.562 -204.33,203.562 m 445.69,-326.882 c -61.67,0 -114.89,50.871 -114.89,123.32 0,73.262 53.22,123.362 114.89,123.362 61.69,0 114.85,-50.1 114.85,-123.362 0,-72.449 -53.16,-123.32 -114.85,-123.32 m 0,326.882 c -112.54,0 -204.28,-85.61 -204.28,-203.562 0,-117.148 91.74,-203.519 204.28,-203.519 112.55,0 204.28,86.371 204.28,203.519 0,117.952 -91.73,203.562 -204.28,203.562"
             style="fill:#ffffff;fill-opacity:1;fill-rule:nonzero;stroke:none"
             id="path24" />
          <path
             d="M 991.355,1277.56 481.879,736.828 c 0.047,-0.09 0.047,-0.238 0.098,-0.328 15.644,-58.719 69.238,-101.93 132.882,-101.93 25.457,0 49.336,6.891 69.817,18.95 l 1.625,0.96 573.459,330.891 -268.405,292.189"
             style="fill:#eb3131;fill-opacity:1;fill-rule:nonzero;stroke:none"
             id="path26" />
          <path
             d="m 1506.77,1369.63 -0.48,0.34 -247.59,143.51 -278.927,-248.21 279.927,-279.84 246.25,142.07 c 43.16,23.36 72.5,68.86 72.5,121.31 0,52.16 -28.91,97.43 -71.68,120.82"
             style="fill:#f6b60b;fill-opacity:1;fill-rule:nonzero;stroke:none"
             id="path28" />
          <path
             d="m 481.871,1763.11 c -3.066,-11.29 -4.691,-23.16 -4.691,-35.41 V 772.191 c 0,-12.25 1.625,-24.113 4.738,-35.363 l 526.942,526.902 -526.989,499.38"
             style="fill:#5778c5;fill-opacity:1;fill-rule:nonzero;stroke:none"
             id="path30" />
          <path
             d="m 995.121,1249.95 263.659,263.62 -572.784,332.09 c -20.816,12.49 -45.125,19.67 -71.109,19.67 -63.641,0 -117.332,-43.31 -132.981,-102.07 0,-0.05 -0.047,-0.1 -0.047,-0.14 l 513.262,-513.17"
             style="fill:#3bad49;fill-opacity:1;fill-rule:nonzero;stroke:none"
             id="path32" />
        </g>
      </g>
      <g
         id="g34">
        <g
           id="g36"
           clip-path="url(#clipPath40)">
          <path
             d="m 2093.53,1621.88 c 33.87,0 60.16,9.36 78.89,28.1 18.73,18.73 28.1,44.61 28.1,77.64 0,33.02 -9.37,58.91 -28.1,77.64 -18.73,18.73 -45.02,28.1 -78.89,28.1 h -48.29 v -211.48 z m -94.08,254.78 h 95.33 c 30.81,0 57.66,-6.25 80.55,-18.73 22.9,-12.5 40.52,-30.05 52.88,-52.67 12.35,-22.62 18.52,-48.5 18.52,-77.64 0,-29.14 -6.17,-55.03 -18.52,-77.64 -12.36,-22.63 -29.98,-40.18 -52.88,-52.67 -22.89,-12.49 -49.74,-18.73 -80.55,-18.73 h -95.33 v 298.08"
             style="fill:#ffffff;fill-opacity:1;fill-rule:nonzero;stroke:none"
             id="path42" />
          <path
             d="m 2306.67,1876.66 h 180.69 v -43.3 h -134.9 v -84.09 h 121.57 v -43.3 h -121.57 v -84.09 h 134.9 v -43.3 h -180.69 v 298.08"
             style="fill:#ffffff;fill-opacity:1;fill-rule:nonzero;stroke:none"
             id="path44" />
          <path
             d="m 2567.7,1593.56 c -19.71,14.43 -33.45,34.7 -41.21,60.79 l 43.29,17.48 c 4.44,-16.65 12.35,-30.25 23.73,-40.79 11.38,-10.56 25.12,-15.83 41.22,-15.83 14.98,0 27.68,3.89 38.09,11.66 10.41,7.77 15.61,18.46 15.61,32.06 0,12.49 -4.58,22.82 -13.74,31.01 -9.16,8.19 -24.98,16.17 -47.46,23.94 l -18.73,6.66 c -20.27,7.21 -37.12,17.28 -50.59,30.18 -13.45,12.91 -20.18,30.04 -20.18,51.42 0,14.71 3.95,28.31 11.86,40.79 7.91,12.5 19.01,22.34 33.3,29.57 14.3,7.21 30.46,10.82 48.51,10.82 25.81,0 46.48,-6.32 62.03,-18.94 15.54,-12.64 26.08,-26.86 31.64,-42.68 l -41.22,-17.48 c -2.77,9.99 -8.6,18.59 -17.48,25.81 -8.89,7.22 -20.4,10.83 -34.56,10.83 -13.59,0 -25.12,-3.61 -34.55,-10.83 -9.44,-7.22 -14.15,-16.38 -14.15,-27.48 0,-10.26 4.23,-18.8 12.69,-25.6 8.46,-6.81 21.58,-13.25 39.34,-19.36 l 19.15,-6.66 c 25.54,-8.88 45.23,-20.4 59.12,-34.55 13.88,-14.16 20.81,-33.04 20.81,-56.62 0,-19.43 -4.92,-35.74 -14.77,-48.92 -9.86,-13.18 -22.48,-22.96 -37.88,-29.35 -15.42,-6.38 -31.17,-9.57 -47.26,-9.57 -24.71,0 -46.91,7.21 -66.61,21.64"
             style="fill:#ffffff;fill-opacity:1;fill-rule:nonzero;stroke:none"
             id="path46" />
          <path
             d="m 2851.41,1592.32 c -23.73,13.59 -42.4,32.33 -56,56.2 -13.6,23.87 -20.4,50.23 -20.4,79.1 0,28.86 6.8,55.23 20.4,79.1 13.6,23.87 32.27,42.6 56,56.2 23.73,13.6 50.02,20.4 78.89,20.4 44.68,0 81.45,-16.23 110.32,-48.71 l -32.05,-31.22 c -10.28,12.21 -21.72,21.37 -34.35,27.47 -12.64,6.1 -27.13,9.16 -43.5,9.16 -20.27,0 -38.73,-4.65 -55.38,-13.95 -16.65,-9.3 -29.83,-22.48 -39.55,-39.54 -9.71,-17.07 -14.57,-36.71 -14.57,-58.91 0,-22.21 4.86,-41.84 14.57,-58.91 9.72,-17.07 22.9,-30.25 39.55,-39.55 16.65,-9.3 35.11,-13.95 55.38,-13.95 33.85,0 62.3,14.01 85.34,42.05 l 32.89,-31.64 c -14.44,-16.93 -31.78,-30.12 -52.04,-39.55 -20.27,-9.43 -42.46,-14.15 -66.61,-14.15 -28.87,0 -55.16,6.79 -78.89,20.4"
             style="fill:#ffffff;fill-opacity:1;fill-rule:nonzero;stroke:none"
             id="path48" />
          <path
             d="m 3262.51,1697.64 -33.31,91.38 -11.24,34.14 h -2.5 l -11.24,-34.14 -33.3,-91.38 z m -72.02,179.02 h 52.03 l 112.82,-298.08 h -50.37 l -27.48,76.6 h -121.56 l -27.47,-76.6 h -50.38 l 112.41,298.08"
             style="fill:#ffffff;fill-opacity:1;fill-rule:nonzero;stroke:none"
             id="path50" />
          <path
             d="m 3503.55,1737.61 c 14.44,0 26.58,4.58 36.44,13.74 9.84,9.16 14.78,20.67 14.78,34.55 0,12.77 -4.52,23.94 -13.54,33.51 -9.01,9.58 -21.01,14.37 -36.01,14.37 h -59.11 v -96.17 z m -103.23,139.05 h 104.48 c 18.04,0 34.35,-3.89 48.92,-11.66 14.57,-7.77 26.08,-18.6 34.56,-32.47 8.46,-13.88 12.7,-29.56 12.7,-47.05 0,-19.98 -6.46,-37.67 -19.36,-53.07 -12.91,-15.41 -29.08,-25.75 -48.5,-31.02 l -0.42,-2.08 82.02,-118.23 v -2.5 h -52.87 l -79.53,116.98 h -36.21 v -116.98 h -45.79 v 298.08"
             style="fill:#ffffff;fill-opacity:1;fill-rule:nonzero;stroke:none"
             id="path52" />
          <path
             d="m 3721.28,1592.32 c -23.87,13.59 -42.81,32.26 -56.83,55.99 -14.01,23.73 -21.02,50.17 -21.02,79.31 0,29.14 7.01,55.58 21.02,79.31 14.02,23.72 32.96,42.39 56.83,55.99 23.87,13.6 49.96,20.4 78.27,20.4 22.75,0 43.71,-4.03 62.86,-12.07 19.15,-8.06 35.38,-19.3 48.71,-33.73 l -31.64,-31.64 c -20.26,22.76 -46.91,34.14 -79.93,34.14 -19.43,0 -37.62,-4.65 -54.54,-13.95 -16.93,-9.3 -30.39,-22.55 -40.38,-39.75 -9.99,-17.21 -14.99,-36.78 -14.99,-58.7 0,-22.21 5.07,-41.84 15.19,-58.91 10.13,-17.07 23.6,-30.25 40.39,-39.55 16.79,-9.3 35.03,-13.95 54.74,-13.95 31.37,0 56.9,9.85 76.6,29.56 6.39,6.11 11.73,13.88 16.04,23.32 4.29,9.43 7.28,19.84 8.94,31.22 h -102.41 v 40.38 H 3944 c 1.67,-9.44 2.5,-17.48 2.5,-24.14 0,-18.88 -2.98,-36.85 -8.94,-53.92 -5.98,-17.06 -15.2,-32.12 -27.69,-45.17 -13.32,-14.43 -29.28,-25.46 -47.88,-33.1 -18.59,-7.62 -39.41,-11.44 -62.44,-11.44 -28.31,0 -54.4,6.79 -78.27,20.4"
             style="fill:#ffffff;fill-opacity:1;fill-rule:nonzero;stroke:none"
             id="path54" />
          <path
             d="m 4151.34,1697.64 -33.31,91.38 -11.24,34.14 h -2.5 l -11.24,-34.14 -33.3,-91.38 z m -72.02,179.02 h 52.03 l 112.82,-298.08 h -50.37 l -27.48,76.6 h -121.56 l -27.47,-76.6 h -50.39 l 112.42,298.08"
             style="fill:#ffffff;fill-opacity:1;fill-rule:nonzero;stroke:none"
             id="path56" />
          <path
             d="m 4392.37,1737.61 c 14.44,0 26.58,4.58 36.44,13.74 9.84,9.16 14.77,20.67 14.77,34.55 0,12.77 -4.51,23.94 -13.53,33.51 -9.01,9.58 -21.02,14.37 -36.01,14.37 h -59.12 v -96.17 z m -103.24,139.05 h 104.49 c 18.04,0 34.35,-3.89 48.92,-11.66 14.57,-7.77 26.08,-18.6 34.56,-32.47 8.46,-13.88 12.7,-29.56 12.7,-47.05 0,-19.98 -6.46,-37.67 -19.36,-53.07 -12.91,-15.41 -29.08,-25.75 -48.51,-31.02 l -0.42,-2.08 82.03,-118.23 v -2.5 h -52.88 l -79.52,116.98 h -36.22 v -116.98 h -45.79 v 298.08"
             style="fill:#ffffff;fill-opacity:1;fill-rule:nonzero;stroke:none"
             id="path58" />
          <path
             d="m 4640.07,1876.66 h 180.68 v -43.3 h -134.89 v -84.09 h 121.56 v -43.3 h -121.56 v -84.09 h 134.89 v -43.3 h -180.68 v 298.08"
             style="fill:#ffffff;fill-opacity:1;fill-rule:nonzero;stroke:none"
             id="path60" />
          <path
             d="m 4884.85,1876.66 h 54.12 l 134.89,-218.98 h 2.5 l -2.5,57.45 v 161.53 h 45.38 v -298.08 h -47.46 l -141.55,230.22 h -2.5 l 2.5,-57.45 v -172.77 h -45.38 v 298.08"
             style="fill:#ffffff;fill-opacity:1;fill-rule:nonzero;stroke:none"
             id="path62" />
        </g>
      </g>
    </g>
  </g>
</svg>
